<?xml version="1.0" encoding="iso-8859-1"?>
<!-- Generator: Adobe Illustrator 18.0.0, SVG Export Plug-In . SVG Version: 6.00 Build 0)  -->
<!DOCTYPE svg PUBLIC "-//W3C//DTD SVG 1.1//EN" "http://www.w3.org/Graphics/SVG/1.1/DTD/svg11.dtd">
<svg version="1.1" id="Capa_1" xmlns="http://www.w3.org/2000/svg" xmlns:xlink="http://www.w3.org/1999/xlink" x="0px" y="0px"
	 viewBox="0 0 354.508 354.508" style="enable-background:new 0 0 354.508 354.508;" xml:space="preserve">
<path d="M344.684,293.441V164.694v-3.321l-42.463-49.905H108.758L69.494,44.643L9.824,161.373v132.069H0v16.423h9.824h29.984h6.535
	v-50.407c0-34.502,25.932-62.472,25.932-62.472s25.937,27.97,25.937,62.472v50.407h223.564h22.906h9.824v-16.423H344.684z
	 M85.445,129.967H71.418v31.871h-9.525v-31.871H47.867v-9.523h14.025v-14.338h9.525v14.338h14.027V129.967z M167.361,273.659
	h-28.578v-41.669c0-19.007,14.289-34.41,14.289-34.41s14.289,15.403,14.289,34.41V273.659z M238.133,273.659h-28.578v-41.669
	c0-19.007,14.289-34.41,14.289-34.41s14.289,15.403,14.289,34.41V273.659z M308.904,273.659h-28.58v-41.669
	c0-19.007,14.291-34.41,14.291-34.41s14.289,15.403,14.289,34.41V273.659z"/>
<g>
</g>
<g>
</g>
<g>
</g>
<g>
</g>
<g>
</g>
<g>
</g>
<g>
</g>
<g>
</g>
<g>
</g>
<g>
</g>
<g>
</g>
<g>
</g>
<g>
</g>
<g>
</g>
<g>
</g>
</svg>
